<?xml version="1.0" standalone="no"?>
<!DOCTYPE svg PUBLIC "-//W3C//DTD SVG 20010904//EN"
 "http://www.w3.org/TR/2001/REC-SVG-20010904/DTD/svg10.dtd">
<svg version="1.0" xmlns="http://www.w3.org/2000/svg"
 width="512.000000pt" height="512.000000pt" viewBox="0 0 512.000000 512.000000"
 preserveAspectRatio="xMidYMid meet">
<metadata>
Created by potrace 1.11, written by Peter Selinger 2001-2013
</metadata>
<g transform="translate(0.000000,512.000000) scale(0.100000,-0.100000)"
fill="#000000" stroke="none">
<path d="M2483 4983 c-18 -10 -40 -29 -50 -43 -11 -14 -61 -126 -112 -250 -51
-124 -99 -238 -106 -255 -8 -16 -59 -140 -115 -275 -56 -135 -108 -258 -115
-275 -7 -16 -55 -131 -105 -255 -51 -124 -95 -228 -99 -232 -3 -3 -40 -9 -81
-13 -41 -3 -95 -8 -120 -10 -25 -2 -85 -7 -135 -10 -49 -4 -106 -8 -125 -10
-19 -2 -73 -6 -120 -10 -47 -3 -103 -8 -125 -10 -22 -2 -83 -7 -135 -10 -52
-3 -111 -8 -130 -10 -19 -2 -69 -7 -110 -10 -41 -3 -97 -8 -125 -10 -27 -3
-84 -7 -125 -10 -41 -3 -95 -7 -120 -10 -25 -2 -81 -7 -124 -10 -94 -7 -137
-25 -174 -73 -22 -29 -27 -46 -27 -92 1 -73 21 -102 130 -194 46 -37 93 -78
106 -90 13 -11 53 -46 89 -76 36 -30 70 -59 76 -65 6 -5 35 -30 64 -55 48 -40
112 -95 146 -125 15 -14 97 -83 229 -196 61 -51 130 -111 155 -133 49 -44 72
-64 165 -141 33 -27 77 -66 98 -85 l38 -35 -15 -48 c-14 -48 -15 -51 -17 -64
-7 -42 -22 -112 -35 -158 -15 -53 -62 -253 -70 -295 -3 -14 -7 -33 -10 -42 -3
-9 -7 -25 -9 -35 -2 -10 -14 -58 -25 -108 -12 -49 -23 -97 -25 -105 -3 -8 -13
-51 -23 -95 -11 -44 -50 -206 -87 -360 -37 -154 -67 -300 -67 -323 1 -55 37
-113 85 -135 59 -28 144 -19 185 20 7 7 18 13 23 13 5 0 15 5 22 10 13 12 78
52 297 185 80 48 242 147 360 220 118 73 237 145 263 161 27 16 61 37 75 46
15 10 34 21 42 25 8 4 74 44 148 90 73 46 137 83 142 83 4 0 84 -47 177 -104
300 -185 523 -321 541 -331 9 -5 89 -54 177 -108 88 -54 169 -104 180 -110 11
-7 42 -26 70 -43 27 -17 72 -44 98 -60 27 -16 65 -39 85 -52 80 -49 113 -62
154 -62 87 0 162 74 161 159 0 20 -11 77 -23 126 -12 50 -23 97 -25 105 -2 8
-8 35 -15 60 -7 25 -14 54 -16 65 -1 11 -12 56 -22 100 -11 44 -36 150 -56
235 -20 85 -45 185 -55 221 -10 36 -17 80 -17 97 1 16 -2 28 -6 26 -3 -2 -9
10 -13 28 -4 18 -24 105 -45 193 -21 88 -41 174 -44 190 -11 53 -15 69 -31
125 l-15 55 43 40 c38 35 663 571 741 635 16 14 37 32 45 40 9 8 57 49 106 90
50 41 95 79 101 85 6 5 35 30 64 55 188 161 200 176 196 262 -2 54 -38 107
-88 131 -18 8 -67 18 -108 21 -41 4 -95 9 -120 11 -25 3 -83 7 -130 11 -47 3
-101 7 -120 9 -19 2 -78 6 -130 10 -52 4 -111 8 -130 10 -19 2 -71 7 -115 10
-44 3 -100 8 -125 10 -25 2 -88 7 -140 10 -52 4 -102 9 -110 10 -8 2 -64 6
-125 10 -60 4 -121 8 -135 10 -14 2 -63 7 -110 10 -47 3 -88 9 -91 13 -3 4
-59 135 -124 292 -65 157 -126 303 -135 325 -61 139 -109 268 -104 277 4 6 3
8 -2 5 -6 -3 -45 81 -89 186 -43 106 -86 208 -94 227 -8 19 -31 74 -50 121
-20 47 -45 97 -56 111 -46 57 -139 75 -202 41z"/>
</g>
</svg>
